<?xml version="1.0" encoding="UTF-8" standalone="no"?>
<!-- Created with Inkscape (http://www.inkscape.org/) -->

<svg
   xmlns:dc="http://purl.org/dc/elements/1.1/"
   xmlns:cc="http://creativecommons.org/ns#"
   xmlns:rdf="http://www.w3.org/1999/02/22-rdf-syntax-ns#"
   xmlns:svg="http://www.w3.org/2000/svg"
   xmlns="http://www.w3.org/2000/svg"
   xmlns:sodipodi="http://sodipodi.sourceforge.net/DTD/sodipodi-0.dtd"
   xmlns:inkscape="http://www.inkscape.org/namespaces/inkscape"
   version="1.1"
   id="svg2"
   xml:space="preserve"
   width="276"
   height="276"
   viewBox="0 0 138 138"
   sodipodi:docname="logo_button_shadow.svg"
   inkscape:version="0.92.5 (2060ec1f9f, 2020-04-08)"><metadata
     id="metadata8"><rdf:RDF><cc:Work
         rdf:about=""><dc:format>image/svg+xml</dc:format><dc:type
           rdf:resource="http://purl.org/dc/dcmitype/StillImage" /><dc:title></dc:title></cc:Work></rdf:RDF></metadata><defs
     id="defs6"><clipPath
       clipPathUnits="userSpaceOnUse"
       id="clipPath18"><path
         d="M 0,249.167 H 562 V 0 H 0 Z"
         id="path16"
         inkscape:connector-curvature="0" /></clipPath><clipPath
       clipPathUnits="userSpaceOnUse"
       id="clipPath85"><rect
         id="rect87"
         width="79.952919"
         height="89.650711"
         x="121.1481"
         y="-171.61896"
         style="stroke-width:0.75"
         transform="scale(1,-1)" /></clipPath><filter
       style="color-interpolation-filters:sRGB"
       inkscape:label="Drop Shadow"
       id="filter1802"><feFlood
         flood-opacity="0.498039"
         flood-color="rgb(0,0,0)"
         result="flood"
         id="feFlood1792" /><feComposite
         in="flood"
         in2="SourceGraphic"
         operator="in"
         result="composite1"
         id="feComposite1794" /><feGaussianBlur
         in="composite1"
         stdDeviation="3"
         result="blur"
         id="feGaussianBlur1796" /><feOffset
         dx="3"
         dy="3"
         result="offset"
         id="feOffset1798" /><feComposite
         in="SourceGraphic"
         in2="offset"
         operator="over"
         result="composite2"
         id="feComposite1800" /></filter><filter
       style="color-interpolation-filters:sRGB"
       inkscape:label="Drop Shadow"
       id="filter1982"><feFlood
         flood-opacity="0.498039"
         flood-color="rgb(0,0,0)"
         result="flood"
         id="feFlood1972" /><feComposite
         in="flood"
         in2="SourceGraphic"
         operator="in"
         result="composite1"
         id="feComposite1974" /><feGaussianBlur
         in="composite1"
         stdDeviation="2"
         result="blur"
         id="feGaussianBlur1976" /><feOffset
         dx="3"
         dy="-3"
         result="offset"
         id="feOffset1978" /><feComposite
         in="SourceGraphic"
         in2="offset"
         operator="over"
         result="composite2"
         id="feComposite1980" /></filter></defs><sodipodi:namedview
     pagecolor="#ffffff"
     bordercolor="#666666"
     borderopacity="1"
     objecttolerance="10"
     gridtolerance="10"
     guidetolerance="10"
     inkscape:pageopacity="0"
     inkscape:pageshadow="2"
     inkscape:window-width="1920"
     inkscape:window-height="1016"
     id="namedview4"
     showgrid="false"
     fit-margin-top="0"
     fit-margin-left="0"
     fit-margin-right="0"
     fit-margin-bottom="0"
     inkscape:zoom="1.7400867"
     inkscape:cx="-91.684009"
     inkscape:cy="174.15932"
     inkscape:window-x="0"
     inkscape:window-y="27"
     inkscape:window-maximized="1"
     inkscape:current-layer="g10"
     inkscape:snap-center="true"
     scale-x="0.5" /><g
     id="g10"
     inkscape:groupmode="layer"
     inkscape:label="USE009 Logo Kenniscentrum ongelijkheid v4"
     transform="matrix(1.3333333,0,0,-1.3333333,-44.104145,288.14422)"
     style="display:inline"><circle
       style="fill:#18bc9c;fill-opacity:1;stroke-width:0.74867254;filter:url(#filter1802)"
       id="path890"
       cx="84.82811"
       cy="-164.35817"
       transform="scale(1,-1)"
       r="43.125" /><g
       id="g12"
       clip-path="url(#clipPath85)"
       transform="matrix(0.78089888,0,0,0.80864016,-41.925637,61.056207)"
       style="fill:#ffffff;filter:url(#filter1982)"><g
         id="g14"
         clip-path="url(#clipPath18)"
         style="fill:#ffffff"><g
           id="g20"
           transform="translate(179.4085,103.5973)"
           style="fill:#ffffff"><path
             d="m 0,0 v -17.062 c 0,-1.57 -1.273,-2.843 -2.844,-2.843 h -17.061 c -1.565,0 -2.844,1.279 -2.844,2.843 V 0 c 0,1.57 1.273,2.844 2.844,2.844 H -2.844 C -1.28,2.844 0,1.563 0,0"
             style="fill:#ffffff;fill-opacity:1;fill-rule:nonzero;stroke:none"
             id="path22"
             inkscape:connector-curvature="0" /></g><g
           id="g24"
           transform="translate(147.3997,136.6969)"
           style="fill:#ffffff"><path
             d="m 0,0 v -12.173 c 0,-1.57 -1.272,-2.843 -2.843,-2.843 h -17.332 c -1.563,0 -2.844,1.28 -2.844,2.843 V 0 c 0,1.571 1.274,2.844 2.844,2.844 H -2.843 C -1.279,2.844 0,1.564 0,0"
             style="fill:#ffffff;fill-opacity:1;fill-rule:nonzero;stroke:none"
             id="path26"
             inkscape:connector-curvature="0" /></g><g
           id="g28"
           transform="translate(196.4349,113.5524)"
           style="fill:#ffffff"><path
             d="m 0,0 h -14.471 c -1.571,0 -2.843,1.273 -2.843,2.844 v 23.203 c 0,1.564 1.279,2.844 2.843,2.844 H 0 c 1.57,0 2.844,-1.274 2.844,-2.844 V 2.844 C 2.844,1.28 1.563,0 0,0"
             style="fill:#ffffff;fill-opacity:1;fill-rule:nonzero;stroke:none"
             id="path30"
             inkscape:connector-curvature="0" /></g><g
           id="g32"
           transform="translate(131.9651,115.0329)"
           style="fill:#ffffff"><path
             d="m 0,0 v -2.961 c 0,-0.785 -0.637,-1.421 -1.422,-1.421 h -4.637 c -0.782,0 -1.421,0.64 -1.421,1.421 V 0 c 0,0.785 0.636,1.422 1.421,1.422 h 4.637 C -0.64,1.422 0,0.782 0,0"
             style="fill:#ffffff;fill-opacity:1;fill-rule:nonzero;stroke:none"
             id="path34"
             inkscape:connector-curvature="0" /></g><g
           id="g36"
           transform="translate(183.7415,101.2331)"
           style="fill:#ffffff"><path
             d="m 0,0 v 5.069 c 0,1.615 1.309,2.923 2.924,2.923 h 6.681 c 1.609,0 2.924,-1.315 2.924,-2.924 V 0 c 0,-1.614 -1.308,-2.924 -2.924,-2.924 H 2.924 C 1.315,-2.924 0,-1.607 0,0"
             style="fill:#ffffff;fill-opacity:1;fill-rule:nonzero;stroke:none"
             id="path38"
             inkscape:connector-curvature="0" /></g><g
           id="g40"
           transform="translate(152.6946,113.5221)"
           style="fill:#ffffff"><path
             d="m 0,0 v -17.279 c 0,-1.62 -1.313,-2.934 -2.934,-2.934 h -11.195 c -1.613,0 -2.933,1.32 -2.933,2.934 V 0 c 0,1.62 1.313,2.933 2.933,2.933 H -2.934 C -1.32,2.933 0,1.613 0,0"
             style="fill:#ffffff;fill-opacity:1;fill-rule:nonzero;stroke:none"
             id="path42"
             inkscape:connector-curvature="0" /></g><g
           id="g44"
           transform="translate(143.2591,153.4118)"
           style="fill:#ffffff"><path
             d="M 0,0 V -5.606 C 0,-7.177 -1.273,-8.45 -2.844,-8.45 H -8.45 c -1.564,0 -2.844,1.279 -2.844,2.844 V 0 c 0,1.57 1.273,2.843 2.844,2.843 h 5.606 C -1.28,2.843 0,1.563 0,0"
             style="fill:#ffffff;fill-opacity:1;fill-rule:nonzero;stroke:none"
             id="path46"
             inkscape:connector-curvature="0" /></g><g
           id="g48"
           transform="translate(174.5296,139.5993)"
           style="fill:#ffffff"><path
             d="m 0,0 v -3.447 c 0,-1.571 -1.273,-2.844 -2.844,-2.844 h -3.447 c -1.563,0 -2.844,1.28 -2.844,2.844 V 0 c 0,1.57 1.274,2.844 2.844,2.844 h 3.447 C -1.279,2.844 0,1.564 0,0"
             style="fill:#ffffff;fill-opacity:1;fill-rule:nonzero;stroke:none"
             id="path50"
             inkscape:connector-curvature="0" /></g><g
           id="g52"
           transform="translate(159.3099,146.7477)"
           style="fill:#ffffff"><path
             d="m 0,0 h -9.066 c -1.571,0 -2.844,1.273 -2.844,2.844 v 19.1 c 0,1.564 1.28,2.843 2.844,2.843 H 0 c 1.57,0 2.843,-1.272 2.843,-2.843 V 2.844 C 2.843,1.279 1.563,0 0,0"
             style="fill:#ffffff;fill-opacity:1;fill-rule:nonzero;stroke:none"
             id="path54"
             inkscape:connector-curvature="0" /></g><g
           id="g56"
           transform="translate(193.5179,157.655)"
           style="fill:#ffffff"><path
             d="m 0,0 v -8.04 c 0,-1.64 -1.329,-2.97 -2.969,-2.97 h -22.184 c -1.633,0 -2.97,1.337 -2.97,2.97 V 0 c 0,1.64 1.33,2.969 2.97,2.969 H -2.969 C -1.336,2.969 0,1.633 0,0"
             style="fill:#ffffff;fill-opacity:1;fill-rule:nonzero;stroke:none"
             id="path58"
             inkscape:connector-curvature="0" /></g><g
           id="g60"
           transform="translate(219.2747,158.2243)"
           style="fill:#ffffff"><path
             d="M 0,0 H 6.224 V -0.816 C 5.848,-0.985 5.482,-1.127 5.126,-1.239 4.769,-1.351 4.422,-1.445 4.083,-1.521 l -5.661,-7.492 c 0.47,-0.619 1.01,-1.314 1.619,-2.084 0.61,-0.769 1.249,-1.562 1.916,-2.38 0.666,-0.816 1.352,-1.642 2.057,-2.478 0.703,-0.836 1.393,-1.63 2.07,-2.38 l 1.351,-0.676 v -0.704 h -3.52 l -0.958,0.677 c -1.108,1.295 -2.211,2.693 -3.31,4.196 -1.098,1.501 -2.164,3.023 -3.196,4.563 H -4.93 v -7.944 c 0.865,-0.149 1.569,-0.375 2.114,-0.675 v -0.817 h -7.127 v 0.817 c 0.752,0.3 1.521,0.526 2.31,0.675 v 16.702 c -0.845,0.113 -1.615,0.348 -2.31,0.705 V 0 h 7.127 v -0.816 c -0.301,-0.132 -0.63,-0.259 -0.987,-0.38 -0.357,-0.122 -0.731,-0.231 -1.127,-0.325 v -7.801 l 1.691,0.394 5.266,7.407 C 1.651,-1.427 1.295,-1.323 0.957,-1.211 0.619,-1.099 0.3,-0.967 0,-0.816 Z"
             style="fill:#ffffff;fill-opacity:1;fill-rule:nonzero;stroke:none"
             id="path62"
             inkscape:connector-curvature="0" /></g><g
           id="g64"
           transform="translate(232.7659,151.6901)"
           style="fill:#ffffff"><path
             d="M 0,0 C -1.07,0 -1.888,-0.361 -2.451,-1.084 -3.014,-1.808 -3.352,-3.079 -3.464,-4.9 h 6.196 c 0.018,0.169 0.033,0.334 0.041,0.493 0.01,0.159 0.015,0.313 0.015,0.465 0,1.201 -0.225,2.158 -0.677,2.872 C 1.661,-0.356 0.957,0 0,0 m 5.153,-11.209 c -0.15,-0.319 -0.384,-0.62 -0.703,-0.901 -0.32,-0.283 -0.686,-0.527 -1.098,-0.733 -0.414,-0.207 -0.865,-0.37 -1.353,-0.493 -0.488,-0.122 -0.985,-0.183 -1.492,-0.183 -1.109,0 -2.085,0.174 -2.93,0.521 -0.845,0.348 -1.549,0.845 -2.111,1.493 -0.564,0.648 -0.991,1.422 -1.282,2.323 -0.292,0.903 -0.437,1.915 -0.437,3.042 0,2.404 0.554,4.235 1.662,5.493 C -3.483,0.61 -1.916,1.24 0.112,1.24 0.77,1.24 1.417,1.15 2.056,0.972 2.693,0.793 3.262,0.498 3.76,0.084 4.257,-0.329 4.661,-0.877 4.971,-1.562 5.28,-2.249 5.436,-3.098 5.436,-4.112 5.436,-4.432 5.422,-4.756 5.394,-5.084 5.365,-5.412 5.312,-5.764 5.238,-6.14 H -3.55 c 0,-0.789 0.1,-1.525 0.297,-2.211 0.197,-0.685 0.492,-1.281 0.888,-1.788 0.393,-0.507 0.89,-0.906 1.492,-1.197 0.6,-0.291 1.305,-0.436 2.111,-0.436 0.658,0 1.325,0.093 2,0.281 0.677,0.188 1.184,0.431 1.522,0.732 z"
             style="fill:#ffffff;fill-opacity:1;fill-rule:nonzero;stroke:none"
             id="path66"
             inkscape:connector-curvature="0" /></g><g
           id="g68"
           transform="translate(255.7757,138.5094)"
           style="fill:#ffffff"><path
             d="m 0,0 h -6.056 v 0.704 c 0.507,0.263 1.062,0.488 1.662,0.676 v 6.676 c 0,1.426 -0.207,2.552 -0.62,3.379 -0.413,0.826 -1.163,1.239 -2.253,1.239 -0.468,0 -0.905,-0.084 -1.309,-0.254 -0.404,-0.168 -0.761,-0.399 -1.07,-0.69 -0.31,-0.291 -0.579,-0.62 -0.802,-0.985 -0.226,-0.366 -0.405,-0.746 -0.536,-1.141 V 1.38 c 0.581,-0.112 1.144,-0.338 1.69,-0.676 V 0 h -6.084 v 0.704 c 0.469,0.243 1.089,0.469 1.859,0.676 v 11.068 l -1.859,0.226 v 0.732 c 0.488,0.206 1.051,0.395 1.69,0.564 0.638,0.168 1.305,0.318 2,0.451 h 0.704 v -3.155 h 0.028 c 0.394,0.863 0.962,1.605 1.703,2.224 0.742,0.62 1.639,0.931 2.691,0.931 0.75,0 1.422,-0.09 2.013,-0.269 0.592,-0.178 1.085,-0.492 1.48,-0.943 0.393,-0.45 0.693,-1.056 0.9,-1.816 0.206,-0.76 0.31,-1.723 0.31,-2.888 V 1.38 C -1.107,1.248 -0.488,1.023 0,0.704 Z"
             style="fill:#ffffff;fill-opacity:1;fill-rule:nonzero;stroke:none"
             id="path70"
             inkscape:connector-curvature="0" /></g><g
           id="g72"
           transform="translate(272.5052,138.5094)"
           style="fill:#ffffff"><path
             d="m 0,0 h -6.055 v 0.704 c 0.507,0.263 1.061,0.488 1.662,0.676 v 6.676 c 0,1.426 -0.207,2.552 -0.62,3.379 -0.414,0.826 -1.164,1.239 -2.253,1.239 -0.469,0 -0.906,-0.084 -1.31,-0.254 -0.403,-0.168 -0.76,-0.399 -1.07,-0.69 -0.31,-0.291 -0.578,-0.62 -0.802,-0.985 -0.226,-0.366 -0.405,-0.746 -0.536,-1.141 V 1.38 c 0.582,-0.112 1.145,-0.338 1.69,-0.676 V 0 h -6.083 v 0.704 c 0.469,0.243 1.088,0.469 1.858,0.676 v 11.068 l -1.858,0.226 v 0.732 c 0.488,0.206 1.051,0.395 1.689,0.564 0.639,0.168 1.306,0.318 2,0.451 h 0.704 v -3.155 h 0.028 c 0.395,0.863 0.963,1.605 1.704,2.224 0.742,0.62 1.639,0.931 2.69,0.931 0.75,0 1.423,-0.09 2.014,-0.269 0.592,-0.178 1.084,-0.492 1.48,-0.943 0.393,-0.45 0.693,-1.056 0.9,-1.816 0.206,-0.76 0.31,-1.723 0.31,-2.888 V 1.38 C -1.107,1.248 -0.488,1.023 0,0.704 Z"
             style="fill:#ffffff;fill-opacity:1;fill-rule:nonzero;stroke:none"
             id="path74"
             inkscape:connector-curvature="0" /></g><g
           id="g76"
           transform="translate(275.4632,157.3796)"
           style="fill:#ffffff"><path
             d="m 0,0 c 0,0.507 0.164,0.911 0.493,1.212 0.328,0.299 0.765,0.45 1.31,0.45 0.545,0 0.976,-0.151 1.296,-0.45 C 3.418,0.911 3.577,0.507 3.577,0 c 0,-0.506 -0.159,-0.906 -0.478,-1.196 -0.32,-0.292 -0.751,-0.437 -1.296,-0.437 -0.545,0 -0.982,0.145 -1.31,0.437 C 0.164,-0.906 0,-0.506 0,0 m 4.93,-18.87 h -6.254 v 0.704 c 0.282,0.15 0.573,0.276 0.873,0.381 0.301,0.102 0.63,0.2 0.986,0.295 v 11.068 l -1.859,0.226 v 0.732 c 0.546,0.226 1.137,0.422 1.775,0.592 0.638,0.169 1.276,0.31 1.914,0.423 H 3.07 V -17.49 c 0.376,-0.095 0.713,-0.193 1.015,-0.295 0.299,-0.105 0.581,-0.231 0.845,-0.381 z"
             style="fill:#ffffff;fill-opacity:1;fill-rule:nonzero;stroke:none"
             id="path78"
             inkscape:connector-curvature="0" /></g><g
           id="g80"
           transform="translate(289.7708,141.7204)"
           style="fill:#ffffff"><path
             d="m 0,0 c 0,0.525 -0.164,0.972 -0.492,1.338 -0.329,0.365 -0.746,0.709 -1.253,1.027 -0.508,0.32 -1.048,0.63 -1.621,0.93 -0.572,0.3 -1.112,0.652 -1.619,1.057 -0.507,0.403 -0.925,0.868 -1.253,1.393 -0.329,0.526 -0.493,1.174 -0.493,1.943 0,0.508 0.118,0.977 0.352,1.409 0.234,0.432 0.549,0.802 0.944,1.112 0.394,0.311 0.854,0.554 1.38,0.732 0.525,0.179 1.088,0.269 1.69,0.269 1.013,0 1.844,-0.058 2.492,-0.17 C 0.774,10.927 1.399,10.768 2,10.562 1.925,9.961 1.836,9.354 1.732,8.745 1.63,8.134 1.483,7.51 1.296,6.872 H 0.592 L -0.479,9.744 C -0.704,9.839 -0.957,9.899 -1.238,9.928 -1.521,9.956 -1.812,9.97 -2.112,9.97 -2.45,9.97 -2.745,9.909 -2.999,9.787 -3.253,9.664 -3.469,9.51 -3.647,9.322 -3.826,9.134 -3.962,8.918 -4.055,8.674 -4.149,8.431 -4.196,8.186 -4.196,7.942 -4.196,7.436 -4.032,6.999 -3.703,6.633 -3.375,6.266 -2.957,5.929 -2.45,5.618 -1.943,5.309 -1.403,5.003 -0.83,4.703 -0.258,4.403 0.282,4.064 0.789,3.689 1.296,3.313 1.714,2.877 2.043,2.38 2.371,1.882 2.535,1.286 2.535,0.592 2.535,-0.047 2.399,-0.62 2.127,-1.126 1.854,-1.634 1.479,-2.065 1,-2.423 0.521,-2.779 -0.032,-3.057 -0.661,-3.253 -1.29,-3.45 -1.962,-3.549 -2.676,-3.549 c -0.806,0 -1.549,0.07 -2.223,0.211 -0.677,0.142 -1.381,0.343 -2.114,0.606 0.037,0.675 0.122,1.328 0.254,1.957 0.131,0.629 0.3,1.235 0.507,1.817 h 0.704 l 1.239,-3.07 c 0.206,-0.15 0.455,-0.236 0.746,-0.254 0.292,-0.018 0.559,-0.029 0.803,-0.029 0.825,0 1.492,0.226 1.999,0.677 C -0.253,-1.184 0,-0.639 0,0"
             style="fill:#ffffff;fill-opacity:1;fill-rule:nonzero;stroke:none"
             id="path82"
             inkscape:connector-curvature="0" /></g><g
           id="g84"
           transform="translate(305.6849,140.4811)"
           style="fill:#ffffff"><path
             d="m 0,0 c -0.339,-0.658 -0.888,-1.207 -1.648,-1.647 -0.76,-0.442 -1.647,-0.663 -2.662,-0.663 -1.108,0 -2.07,0.174 -2.886,0.521 -0.817,0.348 -1.498,0.845 -2.042,1.493 -0.545,0.648 -0.953,1.427 -1.225,2.338 -0.273,0.911 -0.409,1.919 -0.409,3.027 0,2.384 0.582,4.211 1.746,5.478 1.165,1.268 2.751,1.902 4.76,1.902 0.92,0 1.742,-0.081 2.465,-0.24 0.722,-0.159 1.338,-0.37 1.844,-0.634 C -0.113,10.956 -0.217,10.261 -0.366,9.491 -0.518,8.722 -0.704,8.083 -0.93,7.576 h -0.759 l -1.184,3.352 c -0.132,0.093 -0.282,0.165 -0.45,0.211 -0.17,0.047 -0.451,0.07 -0.845,0.07 -1.277,0 -2.264,-0.464 -2.958,-1.394 -0.695,-0.929 -1.042,-2.502 -1.042,-4.717 0,-0.714 0.099,-1.409 0.296,-2.084 0.197,-0.676 0.498,-1.282 0.9,-1.817 0.405,-0.536 0.911,-0.963 1.522,-1.282 0.61,-0.319 1.318,-0.478 2.127,-0.478 0.656,0 1.229,0.093 1.718,0.281 0.488,0.188 0.901,0.413 1.239,0.677 z"
             style="fill:#ffffff;fill-opacity:1;fill-rule:nonzero;stroke:none"
             id="path86"
             inkscape:connector-curvature="0" /></g><g
           id="g88"
           transform="translate(314.1907,151.6901)"
           style="fill:#ffffff"><path
             d="M 0,0 C -1.07,0 -1.888,-0.361 -2.451,-1.084 -3.014,-1.808 -3.352,-3.079 -3.464,-4.9 h 6.196 c 0.018,0.169 0.033,0.334 0.041,0.493 0.01,0.159 0.015,0.313 0.015,0.465 0,1.201 -0.225,2.158 -0.677,2.872 C 1.661,-0.356 0.957,0 0,0 m 5.153,-11.209 c -0.15,-0.319 -0.384,-0.62 -0.703,-0.901 -0.32,-0.283 -0.686,-0.527 -1.098,-0.733 -0.414,-0.207 -0.865,-0.37 -1.353,-0.493 -0.488,-0.122 -0.985,-0.183 -1.492,-0.183 -1.109,0 -2.085,0.174 -2.93,0.521 -0.845,0.348 -1.549,0.845 -2.111,1.493 -0.564,0.648 -0.991,1.422 -1.282,2.323 -0.292,0.903 -0.437,1.915 -0.437,3.042 0,2.404 0.554,4.235 1.662,5.493 C -3.483,0.61 -1.916,1.24 0.112,1.24 0.77,1.24 1.417,1.15 2.056,0.972 2.693,0.793 3.262,0.498 3.76,0.084 4.257,-0.329 4.661,-0.877 4.971,-1.562 5.28,-2.249 5.436,-3.098 5.436,-4.112 5.436,-4.432 5.422,-4.756 5.394,-5.084 5.365,-5.412 5.313,-5.764 5.238,-6.14 H -3.55 c 0,-0.789 0.1,-1.525 0.297,-2.211 0.197,-0.685 0.492,-1.281 0.888,-1.788 0.393,-0.507 0.89,-0.906 1.492,-1.197 0.6,-0.291 1.305,-0.436 2.111,-0.436 0.658,0 1.325,0.093 2,0.281 0.677,0.188 1.184,0.431 1.522,0.732 z"
             style="fill:#ffffff;fill-opacity:1;fill-rule:nonzero;stroke:none"
             id="path90"
             inkscape:connector-curvature="0" /></g><g
           id="g92"
           transform="translate(337.2005,138.5094)"
           style="fill:#ffffff"><path
             d="m 0,0 h -6.056 v 0.704 c 0.507,0.263 1.062,0.488 1.662,0.676 v 6.676 c 0,1.426 -0.207,2.552 -0.62,3.379 -0.413,0.826 -1.163,1.239 -2.253,1.239 -0.468,0 -0.905,-0.084 -1.309,-0.254 -0.404,-0.168 -0.761,-0.399 -1.07,-0.69 -0.31,-0.291 -0.579,-0.62 -0.802,-0.985 -0.226,-0.366 -0.405,-0.746 -0.536,-1.141 V 1.38 c 0.581,-0.112 1.145,-0.338 1.69,-0.676 V 0 h -6.084 v 0.704 c 0.469,0.243 1.089,0.469 1.859,0.676 v 11.068 l -1.859,0.226 v 0.732 c 0.488,0.206 1.051,0.395 1.69,0.564 0.638,0.168 1.305,0.318 2,0.451 h 0.704 v -3.155 h 0.028 c 0.394,0.863 0.962,1.605 1.703,2.224 0.742,0.62 1.639,0.931 2.691,0.931 0.75,0 1.422,-0.09 2.013,-0.269 0.592,-0.178 1.085,-0.492 1.48,-0.943 0.393,-0.45 0.693,-1.056 0.9,-1.816 0.206,-0.76 0.31,-1.723 0.31,-2.888 V 1.38 C -1.107,1.248 -0.488,1.023 0,0.704 Z"
             style="fill:#ffffff;fill-opacity:1;fill-rule:nonzero;stroke:none"
             id="path94"
             inkscape:connector-curvature="0" /></g><g
           id="g96"
           transform="translate(338.1019,151.8844)"
           style="fill:#ffffff"><path
             d="M 0,0 C 0.714,0.465 1.465,0.795 2.253,0.988 V 3.383 C 2.497,3.57 2.784,3.753 3.112,3.932 3.441,4.11 3.765,4.265 4.084,4.396 H 4.788 V 0.707 H 9.013 V -0.758 H 4.788 v -8.126 c 0,-1.121 0.179,-1.915 0.535,-2.382 0.357,-0.468 0.892,-0.701 1.606,-0.701 0.338,0 0.759,0.024 1.267,0.071 0.507,0.046 0.939,0.135 1.296,0.267 l 0.197,-0.422 c -0.15,-0.17 -0.361,-0.348 -0.633,-0.536 -0.274,-0.187 -0.583,-0.365 -0.93,-0.535 -0.348,-0.169 -0.729,-0.31 -1.141,-0.422 -0.413,-0.113 -0.836,-0.169 -1.268,-0.169 -1.126,0 -1.985,0.317 -2.576,0.953 -0.591,0.636 -0.888,1.664 -0.888,3.085 v 8.917 H 0 Z"
             style="fill:#ffffff;fill-opacity:1;fill-rule:nonzero;stroke:none"
             id="path98"
             inkscape:connector-curvature="0" /></g><g
           id="g100"
           transform="translate(355.0003,150.4792)"
           style="fill:#ffffff"><path
             d="m 0,0 c -0.207,-0.113 -0.465,-0.343 -0.774,-0.689 -0.31,-0.349 -0.587,-0.86 -0.831,-1.536 v -8.365 c 0.375,-0.037 0.751,-0.108 1.126,-0.211 0.375,-0.103 0.751,-0.258 1.127,-0.465 v -0.704 h -6.647 v 0.704 c 0.338,0.188 0.657,0.329 0.957,0.422 0.301,0.095 0.602,0.179 0.902,0.254 V 0.479 l -1.859,0.225 v 0.733 c 0.601,0.262 1.221,0.473 1.859,0.633 0.637,0.159 1.248,0.286 1.83,0.381 h 0.705 v -2.986 h 0.112 c 0.17,0.376 0.409,0.751 0.719,1.127 0.309,0.376 0.666,0.714 1.07,1.014 0.403,0.299 0.845,0.53 1.324,0.689 0.478,0.16 0.972,0.212 1.478,0.156 C 3.229,2.206 3.347,1.939 3.45,1.647 3.553,1.356 3.651,1.052 3.746,0.732 V 0 Z"
             style="fill:#ffffff;fill-opacity:1;fill-rule:nonzero;stroke:none"
             id="path102"
             inkscape:connector-curvature="0" /></g><g
           id="g104"
           transform="translate(361.1116,144.0856)"
           style="fill:#ffffff"><path
             d="M 0,0 C 0,1.183 0.028,2.343 0.084,3.479 0.142,4.614 0.169,5.745 0.169,6.872 L -1.689,7.098 V 7.83 C -1.09,8.056 -0.474,8.252 0.155,8.422 0.784,8.591 1.398,8.731 2,8.845 H 2.704 C 2.704,7.437 2.676,6.037 2.619,4.648 2.563,3.258 2.535,1.877 2.535,0.508 c 0,-0.734 0.042,-1.39 0.126,-1.972 0.085,-0.583 0.235,-1.07 0.451,-1.465 0.216,-0.394 0.512,-0.7 0.887,-0.915 0.376,-0.217 0.855,-0.324 1.437,-0.324 0.844,0 1.553,0.305 2.126,0.915 0.573,0.61 1.018,1.404 1.338,2.38 V 6.872 L 7.069,7.098 V 7.83 c 0.582,0.226 1.188,0.422 1.817,0.592 0.63,0.169 1.244,0.309 1.844,0.423 h 0.706 V -3.971 l 1.857,-0.225 V -4.788 C 12.749,-5.032 12.2,-5.248 11.646,-5.436 11.092,-5.623 10.515,-5.764 9.914,-5.858 H 9.21 L 9.013,-2.507 H 8.9 C 8.806,-2.9 8.643,-3.3 8.408,-3.704 8.172,-4.106 7.867,-4.474 7.492,-4.802 7.116,-5.13 6.688,-5.398 6.211,-5.604 c -0.48,-0.207 -1,-0.31 -1.564,-0.31 -0.751,0 -1.414,0.089 -1.986,0.267 -0.572,0.178 -1.056,0.494 -1.45,0.944 C 0.816,-4.252 0.516,-3.646 0.31,-2.887 0.103,-2.126 0,-1.164 0,0"
             style="fill:#ffffff;fill-opacity:1;fill-rule:nonzero;stroke:none"
             id="path106"
             inkscape:connector-curvature="0" /></g><g
           id="g108"
           transform="translate(390.5443,138.5094)"
           style="fill:#ffffff"><path
             d="m 0,0 h -6.028 v 0.704 c 0.188,0.112 0.419,0.231 0.69,0.352 0.273,0.122 0.597,0.229 0.972,0.324 v 6.506 c 0,0.752 -0.033,1.427 -0.099,2.027 -0.065,0.602 -0.187,1.105 -0.366,1.507 -0.179,0.404 -0.437,0.714 -0.774,0.931 -0.337,0.214 -0.78,0.323 -1.324,0.323 -0.413,0 -0.794,-0.084 -1.14,-0.254 -0.348,-0.168 -0.658,-0.394 -0.93,-0.675 -0.272,-0.282 -0.508,-0.602 -0.704,-0.958 -0.197,-0.356 -0.353,-0.732 -0.465,-1.126 V 1.38 C -9.868,1.285 -9.581,1.187 -9.309,1.085 -9.037,0.98 -8.77,0.854 -8.506,0.704 V 0 h -6.056 v 0.704 c 0.263,0.131 0.554,0.254 0.874,0.366 0.319,0.113 0.647,0.215 0.986,0.31 v 11.068 l -1.86,0.226 v 0.732 c 0.601,0.263 1.215,0.474 1.845,0.634 0.629,0.159 1.244,0.286 1.845,0.381 h 0.704 v -3.184 h 0.028 c 0.3,0.883 0.812,1.634 1.536,2.253 0.722,0.62 1.619,0.931 2.689,0.931 0.45,0 0.882,-0.048 1.295,-0.142 0.414,-0.094 0.799,-0.266 1.156,-0.52 0.356,-0.254 0.656,-0.606 0.901,-1.057 0.244,-0.45 0.421,-1.033 0.535,-1.746 0.338,1.033 0.882,1.868 1.632,2.507 0.752,0.638 1.691,0.958 2.817,0.958 0.695,0 1.301,-0.09 1.817,-0.269 0.517,-0.178 0.944,-0.492 1.283,-0.943 0.337,-0.45 0.585,-1.061 0.746,-1.83 0.159,-0.771 0.239,-1.747 0.239,-2.93 V 1.38 C 7.144,1.268 7.764,1.042 8.365,0.704 V 0 H 2.309 v 0.704 c 0.563,0.3 1.118,0.525 1.662,0.676 v 7.013 c 0,0.675 -0.033,1.277 -0.099,1.802 -0.065,0.526 -0.192,0.972 -0.38,1.338 -0.188,0.366 -0.45,0.648 -0.788,0.846 -0.339,0.196 -0.789,0.295 -1.352,0.295 -0.902,0 -1.602,-0.31 -2.098,-0.929 -0.499,-0.62 -0.859,-1.409 -1.085,-2.366 V 1.38 C -1.174,1.192 -0.563,0.967 0,0.704 Z"
             style="fill:#ffffff;fill-opacity:1;fill-rule:nonzero;stroke:none"
             id="path110"
             inkscape:connector-curvature="0" /></g><g
           id="g112"
           transform="translate(227.1741,110.8229)"
           style="fill:#ffffff"><path
             d="m 0,0 c 0,-1.265 0.099,-2.435 0.296,-3.511 0.197,-1.076 0.508,-2.005 0.933,-2.785 0.424,-0.78 0.968,-1.392 1.629,-1.836 0.663,-0.445 1.457,-0.667 2.386,-0.667 0.849,0 1.57,0.222 2.162,0.667 0.594,0.444 1.076,1.056 1.452,1.836 0.374,0.78 0.647,1.709 0.814,2.785 C 9.84,-2.435 9.926,-1.265 9.926,0 9.926,1.264 9.831,2.435 9.643,3.511 9.455,4.587 9.16,5.516 8.754,6.296 8.349,7.076 7.816,7.688 7.154,8.133 6.493,8.577 5.688,8.8 4.739,8.8 3.831,8.8 3.07,8.577 2.458,8.133 1.846,7.688 1.357,7.076 0.992,6.296 0.627,5.516 0.371,4.587 0.222,3.511 0.074,2.435 0,1.264 0,0 m -5.037,0 c 0,1.54 0.218,2.968 0.652,4.281 0.434,1.314 1.076,2.449 1.926,3.407 0.848,0.958 1.897,1.705 3.141,2.237 1.244,0.533 2.675,0.8 4.296,0.8 1.619,0 3.051,-0.267 4.295,-0.8 C 10.518,9.393 11.56,8.646 12.397,7.688 13.238,6.73 13.875,5.595 14.31,4.281 14.743,2.968 14.962,1.54 14.962,0 c 0,-1.54 -0.219,-2.968 -0.652,-4.281 -0.435,-1.314 -1.072,-2.449 -1.913,-3.407 -0.837,-0.958 -1.879,-1.704 -3.124,-2.237 -1.244,-0.533 -2.676,-0.801 -4.295,-0.801 -1.621,0 -3.052,0.268 -4.296,0.801 -1.244,0.533 -2.293,1.279 -3.141,2.237 -0.85,0.958 -1.492,2.093 -1.926,3.407 C -4.819,-2.968 -5.037,-1.54 -5.037,0"
             style="fill:#ffffff;fill-opacity:1;fill-rule:nonzero;stroke:none"
             id="path114"
             inkscape:connector-curvature="0" /></g><g
           id="g116"
           transform="translate(261.8694,100.0973)"
           style="fill:#ffffff"><path
             d="m 0,0 h -7.851 v 1.126 c 0.257,0.139 0.508,0.262 0.755,0.372 0.247,0.108 0.537,0.223 0.874,0.341 v 6.98 c 0,1.247 -0.177,2.222 -0.534,2.926 -0.353,0.703 -0.987,1.055 -1.894,1.055 -0.752,0 -1.398,-0.242 -1.942,-0.728 -0.543,-0.485 -0.953,-1.144 -1.229,-1.975 V 1.839 c 0.316,-0.079 0.597,-0.173 0.844,-0.282 0.248,-0.109 0.508,-0.252 0.786,-0.431 V 0 h -7.852 v 1.126 c 0.493,0.258 1.146,0.497 1.956,0.715 v 10.898 l -1.956,0.239 v 1.126 c 0.258,0.118 0.593,0.231 1.008,0.339 0.414,0.109 0.863,0.212 1.347,0.312 0.485,0.099 0.979,0.183 1.482,0.252 0.504,0.068 0.963,0.123 1.378,0.163 h 1.007 v -3.052 h 0.03 c 0.415,0.83 1.036,1.545 1.865,2.148 0.83,0.602 1.838,0.904 3.023,0.904 0.77,0 1.462,-0.095 2.073,-0.283 0.612,-0.188 1.131,-0.519 1.557,-0.994 0.423,-0.475 0.75,-1.114 0.976,-1.915 0.228,-0.802 0.342,-1.817 0.342,-3.043 V 1.839 C -1.166,1.7 -0.514,1.463 0,1.126 Z"
             style="fill:#ffffff;fill-opacity:1;fill-rule:nonzero;stroke:none"
             id="path118"
             inkscape:connector-curvature="0" /></g><g
           id="g120"
           transform="translate(267.3509,118.8737)"
           style="fill:#ffffff"><path
             d="m 0,0 c 0,-1.027 0.172,-1.807 0.519,-2.34 0.344,-0.534 1.022,-0.8 2.028,-0.8 0.968,0 1.634,0.271 2.001,0.815 C 4.912,-1.782 5.096,-1.007 5.096,0 5.096,1.067 4.907,1.861 4.532,2.385 4.157,2.908 3.496,3.17 2.547,3.17 1.56,3.17 0.889,2.914 0.532,2.4 0.177,1.887 0,1.087 0,0 m 6.28,-12.562 c 0,0.534 -0.163,0.963 -0.489,1.29 -0.326,0.326 -0.745,0.591 -1.259,0.799 -0.512,0.207 -1.091,0.385 -1.733,0.534 -0.642,0.148 -1.278,0.32 -1.91,0.518 -0.515,-0.395 -0.88,-0.79 -1.097,-1.184 -0.218,-0.396 -0.326,-0.87 -0.326,-1.423 0,-0.909 0.311,-1.615 0.933,-2.118 0.622,-0.504 1.497,-0.755 2.623,-0.755 1.106,0 1.924,0.232 2.458,0.695 0.534,0.465 0.8,1.013 0.8,1.644 M 2.547,4.859 c 1.284,0 2.351,-0.133 3.201,-0.4 C 6.596,4.193 7.239,3.861 7.672,3.467 8.601,4.474 9.668,5.176 10.873,5.57 11.01,5.471 11.149,5.328 11.288,5.142 11.426,4.953 11.544,4.751 11.644,4.533 11.741,4.315 11.82,4.099 11.88,3.882 11.938,3.664 11.968,3.486 11.968,3.348 L 11.585,2.638 H 8.474 C 8.689,2.36 8.893,2 9.081,1.556 9.268,1.111 9.362,0.583 9.362,-0.029 9.362,-0.681 9.224,-1.293 8.947,-1.865 8.669,-2.438 8.25,-2.947 7.687,-3.392 7.126,-3.837 6.414,-4.187 5.556,-4.443 4.695,-4.7 3.693,-4.829 2.547,-4.829 2.212,-4.829 1.91,-4.824 1.644,-4.814 1.378,-4.804 1.145,-4.779 0.947,-4.739 0.868,-4.858 0.784,-5.002 0.695,-5.169 0.607,-5.338 0.562,-5.501 0.562,-5.658 c 0,-0.336 0.238,-0.603 0.711,-0.8 0.474,-0.198 1.077,-0.375 1.808,-0.533 0.731,-0.159 1.516,-0.337 2.355,-0.533 0.84,-0.199 1.625,-0.46 2.356,-0.786 0.729,-0.326 1.342,-0.751 1.836,-1.274 0.493,-0.523 0.751,-1.199 0.769,-2.029 0.021,-0.789 -0.176,-1.491 -0.59,-2.104 -0.415,-0.611 -0.984,-1.131 -1.704,-1.555 -0.721,-0.425 -1.571,-0.75 -2.547,-0.978 -0.979,-0.227 -2.021,-0.341 -3.127,-0.341 -1.303,0 -2.415,0.105 -3.333,0.312 -0.918,0.207 -1.665,0.488 -2.237,0.843 -0.573,0.357 -0.992,0.761 -1.259,1.215 -0.267,0.455 -0.401,0.929 -0.401,1.422 0,0.554 0.109,1.028 0.326,1.423 0.218,0.396 0.524,0.741 0.92,1.036 0.395,0.297 0.854,0.543 1.377,0.741 0.524,0.198 1.1,0.375 1.734,0.534 -0.297,0.079 -0.584,0.177 -0.861,0.295 -0.276,0.12 -0.523,0.262 -0.739,0.43 -0.219,0.168 -0.396,0.366 -0.534,0.593 -0.139,0.227 -0.207,0.489 -0.207,0.785 0,0.257 0.078,0.509 0.236,0.755 0.158,0.247 0.365,0.475 0.623,0.683 0.256,0.207 0.532,0.394 0.829,0.562 0.297,0.167 0.592,0.311 0.889,0.43 -1.244,0.276 -2.232,0.814 -2.962,1.614 -0.731,0.8 -1.097,1.822 -1.097,3.066 0,1.482 0.613,2.637 1.838,3.467 1.224,0.829 2.882,1.244 4.976,1.244"
             style="fill:#ffffff;fill-opacity:1;fill-rule:nonzero;stroke:none"
             id="path122"
             inkscape:connector-curvature="0" /></g><g
           id="g124"
           transform="translate(286.7454,122.0436)"
           style="fill:#ffffff"><path
             d="M 0,0 C -0.393,0 -0.74,-0.068 -1.045,-0.207 -1.35,-0.346 -1.614,-0.597 -1.84,-0.963 -2.066,-1.327 -2.248,-1.821 -2.385,-2.443 -2.521,-3.065 -2.621,-3.851 -2.679,-4.799 H 2.062 C 2.199,-3.258 2.111,-2.073 1.798,-1.244 1.482,-0.414 0.884,0 0,0 m 6.12,-10.991 c -0.159,-0.336 -0.41,-0.677 -0.755,-1.022 -0.346,-0.346 -0.77,-0.652 -1.275,-0.919 -0.503,-0.266 -1.086,-0.483 -1.747,-0.651 -0.662,-0.168 -1.378,-0.252 -2.149,-0.252 -1.225,0 -2.31,0.183 -3.257,0.548 -0.95,0.365 -1.741,0.889 -2.371,1.57 -0.633,0.682 -1.112,1.496 -1.438,2.445 -0.324,0.948 -0.487,2.014 -0.487,3.199 0,2.528 0.661,4.454 1.984,5.777 1.323,1.323 3.159,1.985 5.511,1.985 1.006,0 1.95,-0.138 2.83,-0.415 C 3.843,0.997 4.574,0.544 5.157,-0.088 5.739,-0.721 6.145,-1.551 6.371,-2.577 6.598,-3.604 6.584,-4.858 6.328,-6.34 h -9.097 c 0.021,-1.56 0.419,-2.805 1.201,-3.732 0.78,-0.929 1.93,-1.393 3.451,-1.393 0.652,0 1.328,0.099 2.03,0.296 0.7,0.197 1.248,0.454 1.645,0.771 z"
             style="fill:#ffffff;fill-opacity:1;fill-rule:nonzero;stroke:none"
             id="path126"
             inkscape:connector-curvature="0" /></g><g
           id="g128"
           transform="translate(302.6575,108.5641)"
           style="fill:#ffffff"><path
             d="m 0,0 h -8.177 v 1.126 c 0.651,0.316 1.303,0.554 1.955,0.714 v 18.009 l -2.252,0.238 v 1.126 c 0.256,0.118 0.612,0.236 1.067,0.355 0.454,0.119 0.943,0.222 1.467,0.312 0.523,0.089 1.046,0.167 1.57,0.236 0.523,0.07 0.992,0.123 1.406,0.163 h 1.009 V 1.838 C -1.305,1.68 -0.652,1.441 0,1.126 Z"
             style="fill:#ffffff;fill-opacity:1;fill-rule:nonzero;stroke:none"
             id="path130"
             inkscape:connector-curvature="0" /></g><g
           id="g132"
           transform="translate(305.7073,128.236)"
           style="fill:#ffffff"><path
             d="M 0,0 C 0,0.691 0.235,1.234 0.702,1.63 1.172,2.024 1.777,2.223 2.518,2.223 3.261,2.223 3.866,2.024 4.334,1.63 4.803,1.234 5.037,0.691 5.037,0 5.037,-0.672 4.803,-1.205 4.334,-1.6 3.866,-1.995 3.261,-2.192 2.518,-2.192 1.777,-2.192 1.172,-1.995 0.702,-1.6 0.235,-1.205 0,-0.672 0,0 m 6.666,-19.672 h -8.177 v 1.126 c 0.297,0.158 0.603,0.293 0.918,0.401 0.317,0.11 0.661,0.214 1.037,0.313 v 10.898 l -1.955,0.239 v 1.126 c 0.297,0.118 0.666,0.237 1.111,0.354 0.445,0.119 0.915,0.224 1.409,0.312 0.492,0.089 0.976,0.168 1.45,0.237 0.476,0.069 0.89,0.123 1.244,0.163 h 1.008 v -13.331 c 0.394,-0.099 0.75,-0.203 1.067,-0.312 0.315,-0.108 0.612,-0.242 0.888,-0.4 z"
             style="fill:#ffffff;fill-opacity:1;fill-rule:nonzero;stroke:none"
             id="path134"
             inkscape:connector-curvature="0" /></g><g
           id="g136"
           transform="translate(314.4466,128.236)"
           style="fill:#ffffff"><path
             d="M 0,0 C 0,0.691 0.235,1.234 0.704,1.63 1.173,2.024 1.777,2.223 2.52,2.223 3.261,2.223 3.866,2.024 4.335,1.63 4.804,1.234 5.037,0.691 5.037,0 5.037,-0.672 4.804,-1.205 4.335,-1.6 3.866,-1.995 3.261,-2.192 2.52,-2.192 1.777,-2.192 1.173,-1.995 0.704,-1.6 0.235,-1.205 0,-0.672 0,0 m 0.446,-6.933 -1.955,0.238 v 1.126 c 0.295,0.137 0.661,0.266 1.095,0.385 0.435,0.118 0.899,0.222 1.393,0.311 0.494,0.089 0.981,0.163 1.466,0.222 0.485,0.059 0.904,0.108 1.259,0.148 h 1.009 v -13.894 c 0,-0.929 -0.115,-1.759 -0.342,-2.49 -0.226,-0.73 -0.523,-1.363 -0.889,-1.896 -0.366,-0.532 -0.77,-0.987 -1.214,-1.363 -0.445,-0.375 -0.879,-0.686 -1.305,-0.932 -0.424,-0.247 -0.814,-0.44 -1.169,-0.578 -0.356,-0.139 -0.632,-0.238 -0.829,-0.297 l -0.594,0.89 c 0.237,0.118 0.476,0.311 0.711,0.578 0.238,0.267 0.46,0.637 0.667,1.112 0.208,0.476 0.376,1.074 0.505,1.796 0.127,0.723 0.192,1.598 0.192,2.626 z"
             style="fill:#ffffff;fill-opacity:1;fill-rule:nonzero;stroke:none"
             id="path138"
             inkscape:connector-curvature="0" /></g><g
           id="g140"
           transform="translate(330.596,123.3776)"
           style="fill:#ffffff"><path
             d="M 0,0 H 6.934 V -1.126 C 6.558,-1.285 6.208,-1.424 5.882,-1.543 5.556,-1.663 5.195,-1.763 4.801,-1.842 4.504,-2.239 4.183,-2.631 3.838,-3.019 3.491,-3.406 3.146,-3.779 2.801,-4.136 2.454,-4.494 2.123,-4.838 1.808,-5.165 1.491,-5.493 1.205,-5.785 0.949,-6.044 c 0.295,-0.397 0.642,-0.872 1.036,-1.428 0.396,-0.555 0.82,-1.145 1.275,-1.769 0.454,-0.625 0.932,-1.26 1.436,-1.904 0.504,-0.644 1.012,-1.253 1.526,-1.829 l 1.511,-0.714 v -1.125 H 2.726 l -0.8,0.71 c -0.455,0.613 -0.855,1.186 -1.199,1.719 -0.346,0.532 -0.657,1.047 -0.933,1.54 -0.278,0.493 -0.544,0.973 -0.8,1.438 -0.258,0.463 -0.515,0.923 -0.77,1.377 l -0.979,0.297 v -5.242 c 0.335,-0.058 0.642,-0.148 0.919,-0.267 0.275,-0.119 0.572,-0.268 0.889,-0.447 v -1.125 h -8.03 v 1.125 c 0.653,0.317 1.305,0.554 1.956,0.714 V 5.035 l -2.252,0.238 v 1.126 c 0.276,0.119 0.652,0.237 1.126,0.356 0.475,0.119 0.978,0.222 1.51,0.311 0.535,0.089 1.057,0.167 1.571,0.237 0.514,0.069 0.949,0.123 1.304,0.163 h 1.007 V -6.43 h 0.771 c 0.652,0.697 1.258,1.46 1.821,2.295 0.563,0.834 1.062,1.599 1.497,2.293 -0.258,0.08 -0.489,0.18 -0.697,0.299 C 0.431,-1.424 0.218,-1.285 0,-1.126 Z"
             style="fill:#ffffff;fill-opacity:1;fill-rule:nonzero;stroke:none"
             id="path142"
             inkscape:connector-curvature="0" /></g><g
           id="g144"
           transform="translate(357.389,108.5641)"
           style="fill:#ffffff"><path
             d="m 0,0 h -7.852 v 1.126 c 0.237,0.138 0.484,0.267 0.742,0.386 0.256,0.119 0.552,0.227 0.888,0.327 v 5.999 c 0,1.703 -0.163,2.956 -0.489,3.758 -0.326,0.801 -0.963,1.203 -1.911,1.203 -0.79,0 -1.461,-0.273 -2.014,-0.818 -0.552,-0.543 -0.949,-1.172 -1.185,-1.885 V 1.839 c 0.315,-0.079 0.596,-0.169 0.843,-0.269 0.248,-0.098 0.51,-0.247 0.787,-0.444 V 0 h -7.852 v 1.126 c 0.612,0.316 1.263,0.554 1.956,0.714 v 18.009 l -2.252,0.238 v 1.126 c 0.296,0.118 0.675,0.236 1.14,0.355 0.464,0.119 0.953,0.222 1.468,0.312 0.512,0.089 1.026,0.167 1.54,0.236 0.512,0.07 0.967,0.123 1.362,0.163 h 1.008 V 11.821 h 0.03 c 0.196,0.454 0.462,0.884 0.8,1.289 0.335,0.405 0.716,0.76 1.139,1.067 0.426,0.305 0.884,0.548 1.378,0.725 0.494,0.178 1.017,0.267 1.57,0.267 0.791,0 1.498,-0.095 2.119,-0.283 0.622,-0.188 1.141,-0.519 1.556,-0.993 0.415,-0.476 0.73,-1.115 0.947,-1.915 0.218,-0.803 0.326,-1.817 0.326,-3.044 V 1.838 C -1.62,1.76 -1.285,1.67 -0.947,1.57 -0.612,1.472 -0.297,1.323 0,1.126 Z"
             style="fill:#ffffff;fill-opacity:1;fill-rule:nonzero;stroke:none"
             id="path146"
             inkscape:connector-curvature="0" /></g><g
           id="g148"
           transform="translate(365.4632,122.0436)"
           style="fill:#ffffff"><path
             d="m 0,0 c -0.393,0 -0.741,-0.068 -1.045,-0.207 -0.305,-0.139 -0.57,-0.39 -0.796,-0.756 -0.226,-0.364 -0.408,-0.858 -0.545,-1.48 -0.136,-0.622 -0.236,-1.408 -0.293,-2.356 h 4.74 C 2.199,-3.258 2.11,-2.073 1.797,-1.244 1.481,-0.414 0.884,0 0,0 m 6.119,-10.991 c -0.158,-0.336 -0.41,-0.677 -0.755,-1.022 -0.346,-0.346 -0.77,-0.652 -1.275,-0.919 -0.503,-0.266 -1.085,-0.483 -1.747,-0.651 -0.661,-0.168 -1.377,-0.252 -2.148,-0.252 -1.225,0 -2.311,0.183 -3.258,0.548 -0.95,0.365 -1.74,0.889 -2.371,1.57 -0.633,0.682 -1.111,1.496 -1.437,2.445 -0.325,0.948 -0.488,2.014 -0.488,3.199 0,2.528 0.662,4.454 1.985,5.777 1.323,1.323 3.159,1.985 5.51,1.985 1.007,0 1.951,-0.138 2.83,-0.415 C 3.843,0.997 4.574,0.544 5.156,-0.088 5.738,-0.721 6.145,-1.551 6.371,-2.577 6.598,-3.604 6.584,-4.858 6.327,-6.34 H -2.77 c 0.021,-1.56 0.42,-2.805 1.202,-3.732 0.779,-0.929 1.93,-1.393 3.451,-1.393 0.651,0 1.327,0.099 2.029,0.296 0.7,0.197 1.249,0.454 1.645,0.771 z"
             style="fill:#ffffff;fill-opacity:1;fill-rule:nonzero;stroke:none"
             id="path150"
             inkscape:connector-curvature="0" /></g><g
           id="g152"
           transform="translate(374.847,128.236)"
           style="fill:#ffffff"><path
             d="M 0,0 C 0,0.691 0.234,1.234 0.702,1.63 1.171,2.024 1.776,2.223 2.518,2.223 3.26,2.223 3.865,2.024 4.333,1.63 4.802,1.234 5.037,0.691 5.037,0 5.037,-0.672 4.802,-1.205 4.333,-1.6 3.865,-1.995 3.26,-2.192 2.518,-2.192 1.776,-2.192 1.171,-1.995 0.702,-1.6 0.234,-1.205 0,-0.672 0,0 m 6.666,-19.672 h -8.177 v 1.126 c 0.296,0.158 0.603,0.293 0.917,0.401 0.318,0.11 0.662,0.214 1.038,0.313 v 10.898 l -1.955,0.239 v 1.126 c 0.296,0.118 0.666,0.237 1.111,0.354 0.445,0.119 0.914,0.224 1.408,0.312 0.492,0.089 0.977,0.168 1.451,0.237 0.475,0.069 0.89,0.123 1.243,0.163 h 1.009 v -13.331 c 0.394,-0.099 0.75,-0.203 1.066,-0.312 0.316,-0.108 0.613,-0.242 0.889,-0.4 z"
             style="fill:#ffffff;fill-opacity:1;fill-rule:nonzero;stroke:none"
             id="path154"
             inkscape:connector-curvature="0" /></g><g
           id="g156"
           transform="translate(389.9026,110.5788)"
           style="fill:#ffffff"><path
             d="m 0,0 c 0.691,0 1.273,0.217 1.749,0.651 0.474,0.435 0.818,1.175 1.036,2.222 v 7.97 c -0.257,0.159 -0.578,0.287 -0.963,0.386 -0.385,0.098 -0.864,0.148 -1.436,0.148 -1.147,0 -1.965,-0.519 -2.459,-1.556 -0.494,-1.037 -0.741,-2.543 -0.741,-4.517 0,-1.601 0.217,-2.885 0.652,-3.853 C -1.729,0.484 -1.006,0 0,0 M 2.696,0.918 C 2.597,0.484 2.42,0.068 2.163,-0.326 1.905,-0.722 1.6,-1.071 1.244,-1.377 0.889,-1.685 0.484,-1.926 0.029,-2.104 -0.426,-2.281 -0.908,-2.37 -1.423,-2.37 c -1.955,0 -3.441,0.617 -4.457,1.851 -1.018,1.235 -1.526,3.126 -1.526,5.674 0,1.304 0.178,2.445 0.532,3.422 0.355,0.978 0.854,1.802 1.497,2.474 0.642,0.672 1.417,1.175 2.325,1.511 0.908,0.335 1.917,0.503 3.023,0.503 0.355,0 0.657,-0.009 0.903,-0.03 0.247,-0.019 0.475,-0.044 0.683,-0.073 0.206,-0.03 0.403,-0.079 0.591,-0.149 0.188,-0.069 0.401,-0.143 0.637,-0.222 v 5.243 l -2.252,0.238 v 1.126 c 0.277,0.118 0.656,0.227 1.142,0.326 0.482,0.099 0.992,0.193 1.524,0.282 0.534,0.089 1.057,0.173 1.571,0.252 0.514,0.078 0.938,0.147 1.275,0.207 H 7.051 V 0.089 L 9.007,-0.148 V -1.185 C 8.73,-1.324 8.374,-1.452 7.939,-1.57 7.506,-1.688 7.051,-1.798 6.577,-1.896 6.104,-1.995 5.645,-2.078 5.2,-2.147 4.756,-2.217 4.385,-2.271 4.09,-2.311 H 3.081 L 2.814,0.918 Z"
             style="fill:#ffffff;fill-opacity:1;fill-rule:nonzero;stroke:none"
             id="path158"
             inkscape:connector-curvature="0" /></g></g></g></g></svg>